<mxfile host="65bd71144e">
    <diagram id="z-nJIqyjVMsOY0z6QKrj" name="Page-1">
        <mxGraphModel dx="489" dy="520" grid="1" gridSize="10" guides="1" tooltips="1" connect="1" arrows="1" fold="1" page="1" pageScale="1" pageWidth="850" pageHeight="1100" math="0" shadow="0">
            <root>
                <mxCell id="0"/>
                <mxCell id="1" parent="0"/>
                <mxCell id="2" value="App" style="ellipse" vertex="1" parent="1">
                    <mxGeometry x="364.215625" y="130" width="80" height="30" as="geometry"/>
                </mxCell>
                <mxCell id="3" value="sushi container" style="rounded=1;" vertex="1" parent="1">
                    <mxGeometry x="280.3581237792969" y="210" width="80" height="30" as="geometry"/>
                </mxCell>
                <mxCell id="4" value="" style="edgeStyle=elbowEdgeStyle;elbow=vertical;" edge="1" source="2" target="3" parent="1">
                    <mxGeometry relative="1" as="geometry"/>
                </mxCell>
                <mxCell id="5" value="table" style="rounded=1;" vertex="1" parent="1">
                    <mxGeometry x="448.43125" y="210" width="80" height="30" as="geometry"/>
                </mxCell>
                <mxCell id="6" value="" style="edgeStyle=elbowEdgeStyle;elbow=vertical;" edge="1" source="2" target="5" parent="1">
                    <mxGeometry relative="1" as="geometry"/>
                </mxCell>
                <mxCell id="7" value="sushi" style="rounded=1;" vertex="1" parent="1">
                    <mxGeometry x="220.359375" y="290" width="80" height="30" as="geometry"/>
                </mxCell>
                <mxCell id="8" value="" style="edgeStyle=elbowEdgeStyle;elbow=vertical;" edge="1" source="3" target="7" parent="1">
                    <mxGeometry relative="1" as="geometry"/>
                </mxCell>
                <mxCell id="11" value="moreButton" style="rounded=1;" vertex="1" parent="1">
                    <mxGeometry x="340.359375" y="290" width="80" height="30" as="geometry"/>
                </mxCell>
                <mxCell id="12" value="" style="edgeStyle=elbowEdgeStyle;elbow=vertical;" edge="1" source="3" target="11" parent="1">
                    <mxGeometry relative="1" as="geometry"/>
                </mxCell>
            </root>
        </mxGraphModel>
    </diagram>
</mxfile>